<svg xmlns="http://www.w3.org/2000/svg" width="260.941" height="52" viewBox="-11088.941 16613 260.941 52"><g data-name="Group 1107"><path d="M-11088.941 16613.144v51.133h27.231v-19.752h-6.657v-8.063h6.657v-6.771a8.917 8.917 0 0 1 8.917-8.918h6.96v7.251h-4.98a2.834 2.834 0 0 0-2.834 2.834v5.604h7.688l-1.062 8.063h-6.626v19.752h15.839v-51.133h-51.133Z" fill="#fff" fill-rule="evenodd" data-name="facebook (1)"/><g data-name="linkedin"><path d="M-11019 16613h52v52h-52v-52z" fill="#fff" fill-rule="evenodd" data-name="Rectangle 1824"/><g data-name="Group 718"><path d="M-11007.025 16620.91c2.342.002 4.274 1.936 4.269 4.29-.006 2.464-2.051 4.322-4.298 4.268-2.278.046-4.28-1.857-4.28-4.285 0-2.354 1.939-4.275 4.31-4.273Z" fill="#2699fb" fill-rule="evenodd" data-name="Path 320"/><path d="M-11004.537 16656.506h-5.017a1.18 1.18 0 0 1-1.18-1.179v-21.406c0-.651.529-1.179 1.18-1.179h5.017c.652 0 1.18.528 1.18 1.18v21.405a1.18 1.18 0 0 1-1.18 1.18Z" fill="#2699fb" fill-rule="evenodd" data-name="Path 321"/><path d="M-10975.65 16640.26a8.126 8.126 0 0 0-8.126-8.125h-1.287a7.213 7.213 0 0 0-6.324 3.732.55.55 0 0 0-.067-.008v-2.628a.49.49 0 0 0-.49-.49h-6.26a.49.49 0 0 0-.489.49v22.786c0 .27.219.49.49.49h6.396c.27.001.49-.218.49-.489v-13.163c0-2.276 1.814-4.165 4.09-4.19a4.124 4.124 0 0 1 2.973 1.21 4.124 4.124 0 0 1 1.212 2.927v13.218c0 .27.22.49.49.49l6.412.001c.27 0 .49-.219.49-.49v-15.76Z" fill="#2699fb" fill-rule="evenodd" data-name="Path 322"/></g></g><g data-name="twitter"><path d="M-10948 16613h52v52h-52v-52z" fill="#fff" fill-rule="evenodd" data-name="Rectangle 1825"/><path d="M-10941.55 16651.048a21.899 21.899 0 0 0 11.766 3.407c12.157 0 22.012-9.856 22.012-22.012 0-.303-.007-.604-.018-.905.44-.346 3.159-2.525 3.826-3.927 0 0-2.209.918-4.37 1.134l-.014.001.012-.007c.199-.133 2.983-2.029 3.36-4.287 0 0-1.562.834-3.75 1.563-.361.12-.74.239-1.131.348a7.702 7.702 0 0 0-5.638-2.443 7.721 7.721 0 0 0-7.524 9.469c-.596-.025-9.676-.534-15.853-8.014 0 0-3.691 5.04 2.2 10.222 0 0-1.79-.071-3.336-.994 0 0-.567 6.105 6.105 7.666 0 0-1.313.498-3.408.143 0 0 1.172 4.933 7.1 5.394 0 0-4.688 4.235-11.342 3.241h.002Z" fill="#2699fb" fill-rule="evenodd" data-name="Path 323"/></g><g data-name="youtube"><path d="M-10880 16613h52v52h-52v-52z" fill="#fff" fill-rule="evenodd" data-name="Rectangle 1826"/><g data-name="Group 719"><path d="M-10848.905 16645.877a1.613 1.613 0 0 0-.128-.568c-.094-.235-.296-.351-.55-.376-.297-.03-.534.09-.75.282-.086.075-.126.187-.126.187l.005 6.055v.15s.052.07.06.078c.174.19.379.34.64.394.43.089.735-.09.82-.49.02-.1.033-.203.033-.305.002-1.803.005-3.605-.004-5.407Zm0 0a1.613 1.613 0 0 0-.128-.568c-.094-.235-.296-.351-.55-.376-.297-.03-.534.09-.75.282-.086.075-.126.187-.126.187l.005 6.055v.15s.052.07.06.078c.174.19.379.34.64.394.43.089.735-.09.82-.49.02-.1.033-.203.033-.305.002-1.803.005-3.605-.004-5.407Zm6.78-9.132a501.302 501.302 0 0 0-21.503 0 4.574 4.574 0 0 0-4.474 4.573v11.193a4.574 4.574 0 0 0 4.474 4.574c7.168.154 14.337.154 21.504 0a4.574 4.574 0 0 0 4.475-4.574v-11.193a4.574 4.574 0 0 0-4.475-4.573Zm-19.398 16.786h-2.066v-11.683h-2.14v-1.955h6.35v1.95h-2.144v11.688Zm7.397-4.85v4.851h-1.83v-1.109c-.067.071-.104.11-.138.149-.394.444-.84.814-1.41 1.01a1.712 1.712 0 0 1-.858.078c-.4-.066-.668-.296-.83-.66-.15-.335-.188-.694-.189-1.056-.004-1.335-.002-8.401-.002-8.47h1.825c.004.062.01 5.135.012 7.609 0 .134 0 .272.028.404.067.332.322.474.642.358.368-.135.648-.389.884-.693.034-.043.034-.122.034-.185v-7.504l1.832-.004v5.223Zm6.962 3.882c-.245.736-.784 1.11-1.558 1.103-.63-.006-1.14-.256-1.56-.713l-.178-.188v.765h-1.833v-13.638h1.833v4.489s.104-.206.198-.313c.284-.318.63-.563 1.056-.671.703-.176 1.514.041 1.9.864.228.486.292 1.004.292 1.531.003 1.907.003 3.813.001 5.72-.001.356-.038.709-.151 1.05Zm6.771-.384c-.318.93-.974 1.446-1.937 1.588-.597.087-1.188.075-1.748-.179-.766-.345-1.2-.97-1.387-1.766a5.327 5.327 0 0 1-.133-1.139c-.015-1.493-.008-2.988-.005-4.48.002-.782.188-1.502.723-2.1.61-.684 1.391-.938 2.283-.881.268.017.542.06.797.145.867.285 1.33.934 1.512 1.796.07.332.096.677.101 1.017.015.796-.005 2.552-.005 2.552h-3.511v2.517a.817.817 0 1 0 1.635 0v-1.294h1.886s.028 1.527-.211 2.224Zm-1.675-6.42a.818.818 0 1 0-1.635 0v1.413h1.635v-1.413Zm-6.965-.45c-.094-.235-.296-.351-.55-.376-.297-.03-.534.091-.75.282-.086.075-.126.187-.126.187l.005 6.056v.149s.052.07.06.078c.174.19.379.34.64.394.43.089.735-.09.82-.49.02-.1.033-.203.033-.305.002-1.803.005-3.605-.004-5.407a1.611 1.611 0 0 0-.128-.568Z" fill="#2699fb" fill-rule="evenodd" data-name="Path 324"/><path d="M-10844.346 16623.802v10.125h-1.877l.002-1.088c-.207.205-.384.396-.579.567-.345.304-.735.53-1.192.62-.702.137-1.3-.085-1.523-.811a2.673 2.673 0 0 1-.122-.756v-8.657h1.862v7.722c0 .102.009.205.027.306.056.318.291.468.598.361.373-.129.658-.388.9-.692.034-.044.028-.125.028-.189v-7.508h1.876Z" fill="#2699fb" fill-rule="evenodd" data-name="Path 325"/><path d="M-10859.864 16625.561c-.408-1.716-1.261-5.34-1.261-5.34h-2.135s1.64 5.44 2.374 7.866a.968.968 0 0 1 .038.275v5.563h1.968v-5.563c0-.092.012-.187.038-.275.734-2.426 2.374-7.867 2.374-7.867h-2.135s-.853 3.625-1.26 5.341h-.001Z" fill="#2699fb" fill-rule="evenodd" data-name="Path 326"/><path d="M-10853.898 16623.548a2.687 2.687 0 0 0-2.687 2.687v5.257a2.687 2.687 0 1 0 5.373 0v-5.257a2.686 2.686 0 0 0-2.686-2.687Zm.775 8.05a.776.776 0 0 1-1.55 0v-5.47a.776.776 0 0 1 1.55 0v5.47Z" fill="#2699fb" fill-rule="evenodd" data-name="Path 327"/></g></g></g></svg>